# xmcd
#
# Track frame offsets:
#	150
#	22709
#	32492
#	46874
#	62147
#	76278
#	93534
#	116489
#	131190
#	144087
#	159017
#	168651
#	189087
#
# Disc length: 2668 seconds
# Revision: 1
# Processed by: cddbd v1.5.2PL0 Copyright (c) Steve Scherf et al.
# Submitted via: dBpowerAMP V12.0
#
DISCID=950a6a0d
DTITLE=Nick Charles - Into The Blues
DYEAR=2012
DGENRE=Blues
TTITLE0=Hey Hey
TTITLE1=Tilder's Blues
TTITLE2=Ain't Got no Friends
TTITLE3=Light at The End of The Road
TTITLE4=Sunset Blues
TTITLE5=Frankie And Albert 
TTITLE6=Denver Blues Variations
TTITLE7=So Many Roads
TTITLE8=Guitar Shuffle Variations
TTITLE9=Strange Things Happen At Night
TTITLE10=Careless Love 
TTITLE11=Colombus Avenue
TTITLE12=Molly's Rag
EXTD=
EXTT0=
EXTT1=
EXTT2=
EXTT3=
EXTT4=
EXTT5=
EXTT6=
EXTT7=
EXTT8=
EXTT9=
EXTT10=
EXTT11=
EXTT12=
PLAYORDER=
